<?xml version="1.0" encoding="utf-8"?>
<!-- Generator: Adobe Illustrator 24.0.3, SVG Export Plug-In . SVG Version: 6.00 Build 0)  -->
<svg version="1.1" id="Layer_1" xmlns="http://www.w3.org/2000/svg" xmlns:xlink="http://www.w3.org/1999/xlink" x="0px" y="0px"
	 viewBox="0 0 512 512" style="enable-background:new 0 0 512 512;" xml:space="preserve">
<style type="text/css">
	.st0{fill:#58595B;}
	.st1{fill:#FF1289;}
	.st2{fill:#FF88C9;}
</style>
<g id="surface1">
	<path class="st0" d="M256.5,512c-4.7,0-8.5-3.8-8.5-8.5v-128c0-4.7,3.8-8.5,8.5-8.5c4.7,0,8.5,3.8,8.5,8.5v128
		C265,508.2,261.2,512,256.5,512z"/>
	<path class="st0" d="M171.1,477.9h-17.1c-51.8-0.1-93.8-42.1-93.9-93.9v-51.2c0-4.7,3.8-8.5,8.5-8.5c4.7,0,8.5,3.8,8.5,8.5V384
		c0,42.4,34.4,76.8,76.8,76.8h17.1c42.4,0,76.8-34.4,76.8-76.8v-51.2c0-4.7,3.8-8.5,8.5-8.5c4.7,0,8.5,3.8,8.5,8.5V384
		C264.9,435.8,222.9,477.8,171.1,477.9z"/>
	<path class="st0" d="M358.9,477.9h-17.1c-51.8-0.1-93.8-42.1-93.9-93.9v-51.2c0-4.7,3.8-8.5,8.5-8.5c4.7,0,8.5,3.8,8.5,8.5V384
		c0,42.4,34.4,76.8,76.8,76.8h17.1c42.4,0,76.8-34.4,76.8-76.8v-51.2c0-4.7,3.8-8.5,8.5-8.5s8.5,3.8,8.5,8.5V384
		C452.7,435.8,410.7,477.8,358.9,477.9z"/>
	<path class="st0" d="M282.1,384h-51.2c-4.7,0-8.5-3.8-8.5-8.5c0-4.7,3.8-8.5,8.5-8.5h51.2c4.7,0,8.5,3.8,8.5,8.5
		C290.6,380.2,286.8,384,282.1,384z"/>
	<path class="st0" d="M256.5,238.9c-4.7,0-8.5-3.8-8.5-8.5V34.1c0-4.7,3.8-8.5,8.5-8.5c4.7,0,8.5,3.8,8.5,8.5v196.3
		C265,235.1,261.2,238.9,256.5,238.9z"/>
	<path class="st0" d="M290.6,8.5h-68.3v34.1h68.3V8.5z"/>
	<path class="st1" d="M410.1,221.9l-25.6,119.5h59.7V221.9H410.1z"/>
	<path class="st2" d="M478.3,221.9h-34.1v119.5h59.7L478.3,221.9z"/>
	<path class="st1" d="M34.6,221.9L9,341.3h59.7V221.9H34.6z"/>
	<path class="st2" d="M68.7,221.9v119.5h59.7l-25.6-119.5H68.7z"/>
	<path class="st1" d="M222.3,221.9l-25.6,119.5h59.7V221.9H222.3z"/>
	<path class="st2" d="M256.5,221.9v119.5h59.7l-25.6-119.5H256.5z"/>
	<path class="st0" d="M324.7,17.1H188.2c-4.7,0-8.5-3.8-8.5-8.5c0-4.7,3.8-8.5,8.5-8.5h136.5c4.7,0,8.5,3.8,8.5,8.5
		C333.3,13.2,329.4,17.1,324.7,17.1z"/>
</g>
</svg>
